<?xml version="1.0" encoding="UTF-8"?>
<svg width="249px" height="76px" viewBox="0 0 249 76" version="1.1" xmlns="http://www.w3.org/2000/svg" xmlns:xlink="http://www.w3.org/1999/xlink">
    <title>Preacta-Full-Color-Logo@2x</title>
    <defs>
        <polygon id="path-1" points="0 0 76 0 76 76 0 76"></polygon>
    </defs>
    <g id="Homepage" stroke="none" stroke-width="1" fill="none" fill-rule="evenodd">
        <g id="Preacta-Homepage-V2" transform="translate(-89.000000, -4891.000000)">
            <g id="Preacta-Full-Color-Logo" transform="translate(89.000000, 4891.000000)">
                <g id="Group-3">
                    <mask id="mask-2" fill="white">
                        <use xlink:href="#path-1"></use>
                    </mask>
                    <g id="Clip-2"></g>
                    <path d="M23.8825964,18.7347344 C24.0084704,18.8498615 24.0700393,18.9141388 24.1396929,18.9729456 C27.1981086,21.6124146 30.2565244,24.2518835 33.3095917,26.8968229 C33.4809894,27.0493725 33.6604718,27.086795 33.8746567,27.0908978 C36.2688755,27.1136497 38.6630942,27.1431153 41.0574374,27.1698457 C42.5945435,27.1858839 44.1158531,27.3197844 45.6155204,27.6503708 C48.3150957,28.2432878 50.1494735,29.7798491 50.8672789,32.4942874 C51.4778675,34.7937212 51.4430407,37.1038471 50.7521016,39.3874913 C50.039769,41.7270828 48.5078869,43.2260972 46.1297134,43.8605396 C44.8254494,44.2085317 43.4996674,44.38259 42.1579645,44.4067095 C39.3486849,44.4575593 36.5366688,44.3960173 33.7273891,44.339697 C33.4568594,44.334351 33.2426745,44.3986282 33.0311017,44.5752973 C29.6726778,47.3833541 26.311642,50.183454 22.9452577,52.980943 C22.7578148,53.1362278 22.6828128,53.3089185 22.6828128,53.5564541 C22.6774644,54.785181 22.6507224,56.0125403 22.6399012,57.2426348 C22.621244,59.622384 22.6078108,62.0022575 22.5890292,64.3846176 C22.5890292,64.4972582 22.6533344,64.6416022 22.4846731,64.7326098 C22.3265843,64.6416022 22.1605351,64.548108 21.9972222,64.4490192 C19.0111964,62.6312295 16.3677172,60.4040299 14.1771109,57.6762885 C7.95057497,49.9211233 5.79728311,41.1247169 7.82196454,31.4020719 C9.25210258,24.516825 12.7764513,18.777503 18.2050802,14.2991087 C25.5269193,8.25307119 33.9577435,5.98981669 43.2990401,7.56777901 C51.5233911,8.9585044 58.1544156,13.1453512 63.0285519,19.9112439 C68.3713576,27.3237629 70.0640649,35.6020974 68.2026963,44.5325287 C66.8315151,51.1257307 63.5132664,56.6510854 58.4865141,61.1401719 C56.3787458,63.0221145 54.0488323,64.5800602 51.5046095,65.8075438 C46.9116996,68.0280297 42.0669173,69.0640492 36.9625509,68.889991 C35.2994464,68.833795 33.6577355,68.6410877 32.0241093,68.3399669 C31.708056,68.2824034 31.6223572,68.1700115 31.630442,67.8487497 C31.6625324,65.230665 31.6518356,62.6125804 31.7107924,59.9918848 C31.7642765,57.6602503 31.7456192,55.3286157 31.7375345,52.9957379 C31.7349224,52.6008744 31.8420149,52.4750551 32.243767,52.4830121 C34.3514109,52.525905 36.4590547,52.5393324 38.5666986,52.5633275 C39.4771709,52.5727764 40.3877676,52.5727764 41.2983643,52.5848361 C44.1212015,52.6196478 46.9116996,52.3840475 49.6112749,51.514005 C54.7504681,49.8582137 58.232154,46.5482475 59.664904,41.2639635 C60.4898019,38.2149603 60.5432859,35.1122478 60.0613077,32.0070487 C59.5819416,28.9204987 58.358028,26.1700054 56.1405553,23.9145835 C53.5560329,21.2844391 50.3316923,19.9527692 46.767044,19.3022886 C44.5095205,18.8886517 42.2303546,18.8726134 39.9485766,18.8445155 C35.9716038,18.7976441 31.9946309,18.7668109 28.0202701,18.7347344 C26.6677461,18.7240423 25.3180828,18.7347344 23.8825964,18.7347344 M38.0016336,76 C58.8051794,76.0481364 76.3012977,59.0870306 75.9960656,37.4171519 C75.7067543,16.6761227 58.7918705,-0.0227767648 37.93198,-4.80870623e-05 C16.9596486,0.0229756885 -0.319548413,17.1807673 0.00446529447,38.6138024 C0.315170186,59.2249096 17.1122647,76.0079786 38.0016336,76" id="Fill-1" fill="#1B83BD" mask="url(#mask-2)"></path>
                </g>
                <path d="M22.8057402,49.7031797 L22.8057402,21.2738711 C25.9710684,24.0105921 29.0881424,26.7097862 32.2130716,29.3995051 C32.4277843,29.5861422 32.4519737,29.7887376 32.4519737,30.035717 C32.4466122,33.7672125 32.4439937,37.4998302 32.4573831,41.2310764 C32.4600785,41.5585953 32.3446174,41.7585725 32.1029722,41.9571783 C31.0156933,42.8484734 29.9363945,43.7532333 28.8544771,44.6551257 C26.8544825,46.322143 24.8568569,47.9919031 22.8057402,49.7031797 M23.8394033,18.6861356 C25.2784269,18.6861356 26.6314158,18.6754137 27.9872725,18.6861356 C31.9714264,18.7183015 35.9581988,18.7492207 39.9449711,18.7962228 C42.2324962,18.8243992 44.5171534,18.8404822 46.7802396,19.2552729 C50.3536714,19.9075677 53.585957,21.2429519 56.1768479,23.8804323 C58.3997845,26.1420204 59.6267139,28.9001853 60.1072613,31.995469 C60.5904271,35.1093291 60.5368112,38.2205711 59.7098808,41.2780786 C58.2736003,46.5772262 54.7833354,49.8964245 49.6314789,51.5567094 C46.9252517,52.4291787 44.1278776,52.6654361 41.2982094,52.6305274 C40.3852443,52.618434 39.4724038,52.618434 38.5596881,52.6089588 C36.4468508,52.5848967 34.3340136,52.5714319 32.2211764,52.5284193 C31.8184343,52.5204402 31.711078,52.6466103 31.7136964,53.0425753 C31.7218011,55.3819599 31.7405043,57.7202225 31.6868885,60.0583605 C31.6277864,62.6863657 31.6385096,65.311628 31.6063401,67.9370151 C31.5982354,68.2591729 31.6841454,68.3718783 32.0009774,68.4296024 C33.6386289,68.7315631 35.2843851,68.9248079 36.9515876,68.9811606 C42.0686562,69.1557043 46.9252517,68.1167951 51.5294788,65.8901158 C54.0799707,64.6593332 56.41575,63.0970421 58.5285872,61.2098504 C63.5677258,56.7082429 66.8941508,51.1674769 68.2688354,44.5558851 C70.1346658,35.6005451 68.4379123,27.2989959 63.0818169,19.8659266 C58.1956704,13.0810378 51.5483066,8.88263772 43.3036903,7.48803332 C33.9393762,5.90566974 25.4877779,8.17523692 18.1478974,14.2380134 C12.705892,18.7290235 9.17285905,24.4843536 7.73919705,31.3888049 C5.70952668,41.1384436 7.86812439,49.9595096 14.1100029,57.7363055 C16.3061317,60.4716551 18.9559999,62.7050668 21.9493834,64.527802 C22.1130987,64.6271673 22.2795571,64.7210468 22.4380355,64.8123083 C22.6071123,64.7210468 22.5426487,64.5761756 22.5426487,64.4633455 C22.5614766,62.0743405 22.5749428,59.6878291 22.593646,57.3014423 C22.6044939,56.0677921 22.6313018,54.8370095 22.6366634,53.6048554 C22.6366634,53.3566293 22.7118502,53.183457 22.8997549,53.027739 C26.2744342,50.222572 29.6438765,47.4146621 33.0104511,44.598773 C33.2225452,44.4216111 33.4372579,44.3571546 33.7084542,44.3625156 C36.5246561,44.418993 39.3436012,44.4807066 42.1599278,44.4297149 C43.5049367,44.4055282 44.8338608,44.2309844 46.1413386,43.8820217 C48.5253721,43.2456851 50.0610288,41.7424896 50.7751167,39.3963725 C51.4677582,37.1064834 51.5026708,34.7899141 50.8905777,32.4840668 C50.1710036,29.7619326 48.3321058,28.2210855 45.6258786,27.6265148 C44.1225161,27.2950064 42.5975825,27.1607324 41.0565642,27.1446494 C38.6563212,27.1178445 36.256203,27.0882967 33.8560847,27.0654814 C33.6413721,27.0613671 33.4614474,27.0238402 33.2896274,26.8708651 C30.2290371,24.2186731 27.1630852,21.5718422 24.0971333,18.9250112 C24.027308,18.8660403 23.9655875,18.8015838 23.8394033,18.6861356" id="Fill-4" fill="#FDFDFE"></path>
                <path d="M23,49 C25.1251477,47.3145653 27.1948737,45.67002 29.2670542,44.0281762 C30.3880212,43.1399033 31.5062753,42.2488061 32.6327974,41.3709704 C32.8831643,41.1753637 33.0027927,40.9784063 33,40.6558332 C32.9861274,36.9809322 32.9888404,33.3046805 32.9943954,29.629534 C32.9943954,29.3862842 32.9693329,29.1867482 32.7468706,29.0029295 C29.5091531,26.3538278 26.2795745,23.695394 23,21 L23,49 Z" id="Fill-6" fill="#221E1F"></path>
                <path d="M95.5252528,38.2901525 L102.049132,38.2901525 C104.913262,38.2901525 106.867418,37.7652978 107.910349,36.7155882 C108.953281,35.6652585 109.47612,34.1167447 109.47612,32.0701708 C109.47612,30.04084 108.949286,28.5104374 107.89824,27.4780949 C106.845945,26.4463726 104.895784,25.9295811 102.049132,25.9295811 L95.5252528,25.9295811 L95.5252528,38.2901525 Z M89,56 L89,20 L102.55312,20 C106.840576,20 110.153514,21.0463602 112.492183,23.1370957 C114.830728,25.2284515 116,28.2058951 116,32.0701708 C116,35.9343225 114.829355,38.9077965 112.49081,40.9904688 C110.149519,43.0731411 106.835208,44.1141672 102.545006,44.1141672 L95.5252528,44.1141672 L95.5252528,56 L89,56 Z" id="Fill-8" fill="#221E1F"></path>
                <path d="M119,56 L119,31.7826456 C119.42499,31.5763377 120.010162,31.3318293 120.758034,31.0483856 C121.505907,30.7650644 123.010891,30.3610194 125.270107,29.8377199 C127.530643,29.3136858 129.77306,29.0342826 132,29 L132,34.4880328 C129.382986,34.5230501 127.139248,34.81886 125.270107,35.374483 L125.270107,56 L119,56 Z" id="Fill-10" fill="#221E1F"></path>
                <path d="M139.465917,39.9851473 L150.297011,39.9851473 C150.121186,38.1268098 149.573668,36.556665 148.653218,35.2762107 C147.732768,33.9962556 146.46735,33.3559661 144.85548,33.3559661 C143.242372,33.3559661 141.984874,33.8780579 141.083107,34.9213679 C140.17998,35.9648028 139.641741,37.6531453 139.465917,39.9851473 M133,42.3185222 C133,37.9695457 133.959178,34.4961308 135.878649,31.8974039 C137.796882,29.2994259 140.841952,28 145.012621,28 C148.955621,28 151.939443,29.2637294 153.962849,31.791313 C155.987616,34.3193959 157,37.4307289 157,41.125312 C157,42.6456565 156.964117,43.7683475 156.893466,44.492636 L139.465917,44.492636 C139.641741,46.8441088 140.337121,48.4174988 141.555891,49.2130554 C142.773424,50.0084873 144.35597,50.4062656 146.300805,50.4062656 C149.455131,50.4062656 152.504284,49.7074388 155.44814,48.3114079 L155.44814,53.5612831 C152.469639,55.1884673 149.095439,56 145.328387,56 C144.13622,56 143.01458,55.9032701 141.963592,55.7084373 C140.912603,55.5149775 139.822886,55.1078382 138.694689,54.4897654 C137.566367,53.8703195 136.596672,53.0842486 135.784117,52.1288068 C134.971562,51.1748627 134.304146,49.853969 133.781993,48.1648777 C133.259839,46.4772841 133,44.5288318 133,42.3185222" id="Fill-12" fill="#221E1F"></path>
                <path d="M165.503914,45.8788537 C165.503914,48.7840079 167.199825,50.2353346 170.59177,50.2353346 L170.645401,50.2353346 C173.879191,50.2353346 175.49621,48.8635395 175.49621,46.1184488 L175.49621,42.690962 C173.985084,42.4782525 172.693709,42.3638321 171.62059,42.3455748 C167.560185,42.3455748 165.521335,43.5229176 165.503914,45.8788537 M159,46.702806 C159,46.1534628 159.053631,45.5907392 159.159524,45.0158858 C159.266662,44.4396568 159.54527,43.7181201 159.996716,42.8504004 C160.449531,41.9828057 161.065728,41.2215032 161.845431,40.5658677 C162.625135,39.9109825 163.777144,39.3481339 165.301585,38.8790725 C166.82615,38.4098861 168.623847,38.1749177 170.697663,38.1749177 C172.173948,38.1749177 173.756001,38.298842 175.443948,38.5464403 C175.443948,35.0926931 173.536251,33.3661321 169.72235,33.3661321 C166.677451,33.3661321 164.031612,33.8271903 161.783837,34.7474309 L161.783837,29.3811738 C164.278115,28.4604329 167.047144,28 170.092168,28 C173.946261,28 176.894723,28.9873923 178.936311,30.9616767 C180.979268,32.9367115 182,35.7927212 182,39.5299561 L182,46.8616191 C182,49.3588613 181.070354,51.5062145 179.213675,53.3048041 C177.356871,55.1020182 174.500863,56 170.645401,56 C166.657293,56 163.719531,55.0980166 161.831993,53.2912988 C159.944454,51.4845809 159,49.2889586 159,46.702806" id="Fill-14" fill="#0A83BB"></path>
                <path d="M184,42.0003126 C184,37.4748896 185.124288,34.010263 187.374387,31.6059327 C189.62309,29.2014774 192.844252,28 197.038001,28 C199.736723,28 202.391612,28.5135791 205,29.5407372 L205,34.9068692 C202.822447,34.0392745 200.5369,33.605102 198.144501,33.605102 C195.607263,33.605102 193.722439,34.1785799 192.490029,35.3242851 C191.256223,36.4706156 190.64078,38.6959997 190.64078,42.0003126 C190.64078,45.2689863 191.256223,47.4849918 192.490029,48.6494545 C193.722439,49.8139171 195.607263,50.3955232 198.144501,50.3955232 C200.428778,50.3955232 202.714453,49.9432185 205,49.0398596 L205,54.4059917 C202.391612,55.4695392 199.736723,56 197.038001,56 C192.844252,56 189.62309,54.7937707 187.374387,52.3813122 C185.124288,49.9674781 184,46.5076035 184,42.0003126" id="Fill-16" fill="#0A83BB"></path>
                <path d="M207,34.4160442 L207,28.9086869 L211.430138,28.9086869 L211.430138,21 L217.767325,21 L217.767325,28.9086869 L224,28.9086869 L224,34.4160442 L217.767325,34.4160442 L217.767325,47.5695466 C217.767325,48.7189808 218.002175,49.4927235 218.474664,49.8934774 C218.947273,50.2942314 219.783979,50.4938713 220.986114,50.4938713 C222.120353,50.4938713 223.124133,50.3020942 224,49.9198913 L224,55.2170432 C222.763916,55.7394239 221.415561,56 219.956267,56 L219.82702,56 C217.217726,56 215.165791,55.2170432 213.671336,53.6510067 C212.17676,52.0849702 211.430138,49.9277541 211.430138,47.1780068 L211.430138,34.4160442 L207,34.4160442 Z" id="Fill-18" fill="#0A83BB"></path>
                <path d="M232.503914,45.8788537 C232.503914,48.7840079 234.199825,50.2353346 237.59177,50.2353346 L237.645401,50.2353346 C240.879191,50.2353346 242.49621,48.8635395 242.49621,46.1184488 L242.49621,42.690962 C240.985084,42.4782525 239.693709,42.3638321 238.62059,42.3455748 C234.560185,42.3455748 232.521335,43.5229176 232.503914,45.8788537 M226,46.702806 C226,46.1534628 226.053631,45.5907392 226.159524,45.0158858 C226.266662,44.4396568 226.54527,43.7181201 226.996716,42.8504004 C227.449531,41.9828057 228.065728,41.2215032 228.845431,40.5658677 C229.625135,39.9109825 230.777144,39.3481339 232.301585,38.8790725 C233.82615,38.4098861 235.623847,38.1749177 237.697663,38.1749177 C239.173948,38.1749177 240.756001,38.298842 242.443948,38.5464403 C242.443948,35.0926931 240.536251,33.3661321 236.72235,33.3661321 C233.677451,33.3661321 231.031612,33.8271903 228.783837,34.7474309 L228.783837,29.3811738 C231.278115,28.4604329 234.047144,28 237.092168,28 C240.946261,28 243.894723,28.9873923 245.936311,30.9616767 C247.979268,32.9367115 249,35.7927212 249,39.5299561 L249,46.8616191 C249,49.3588613 248.070354,51.5062145 246.213675,53.3048041 C244.356871,55.1020182 241.500863,56 237.645401,56 C233.657293,56 230.719531,55.0980166 228.831993,53.2912988 C226.944454,51.4845809 226,49.2889586 226,46.702806" id="Fill-20" fill="#0A83BB"></path>
            </g>
        </g>
    </g>
</svg>