<?xml version="1.0" encoding="UTF-8"?>
<svg width="76px" height="76px" viewBox="0 0 76 76" version="1.1" xmlns="http://www.w3.org/2000/svg" xmlns:xlink="http://www.w3.org/1999/xlink">
    <title>Preacta-Full-Color-Logo@2x</title>
    <defs>
        <polygon id="path-1" points="0 0 76 0 76 76 0 76"></polygon>
    </defs>
    <g id="Homepage" stroke="none" stroke-width="1" fill="none" fill-rule="evenodd">
        <g id="Preacta-Homepage-V2" transform="translate(-89.000000, -4891.000000)">
            <g id="Preacta-Full-Color-Logo" transform="translate(89.000000, 4891.000000)">
                <g id="Group-3">
                    <mask id="mask-2" fill="white">
                        <use xlink:href="#path-1"></use>
                    </mask>
                    <g id="Clip-2"></g>
                    <path d="M23.8825964,18.7347344 C24.0084704,18.8498615 24.0700393,18.9141388 24.1396929,18.9729456 C27.1981086,21.6124146 30.2565244,24.2518835 33.3095917,26.8968229 C33.4809894,27.0493725 33.6604718,27.086795 33.8746567,27.0908978 C36.2688755,27.1136497 38.6630942,27.1431153 41.0574374,27.1698457 C42.5945435,27.1858839 44.1158531,27.3197844 45.6155204,27.6503708 C48.3150957,28.2432878 50.1494735,29.7798491 50.8672789,32.4942874 C51.4778675,34.7937212 51.4430407,37.1038471 50.7521016,39.3874913 C50.039769,41.7270828 48.5078869,43.2260972 46.1297134,43.8605396 C44.8254494,44.2085317 43.4996674,44.38259 42.1579645,44.4067095 C39.3486849,44.4575593 36.5366688,44.3960173 33.7273891,44.339697 C33.4568594,44.334351 33.2426745,44.3986282 33.0311017,44.5752973 C29.6726778,47.3833541 26.311642,50.183454 22.9452577,52.980943 C22.7578148,53.1362278 22.6828128,53.3089185 22.6828128,53.5564541 C22.6774644,54.785181 22.6507224,56.0125403 22.6399012,57.2426348 C22.621244,59.622384 22.6078108,62.0022575 22.5890292,64.3846176 C22.5890292,64.4972582 22.6533344,64.6416022 22.4846731,64.7326098 C22.3265843,64.6416022 22.1605351,64.548108 21.9972222,64.4490192 C19.0111964,62.6312295 16.3677172,60.4040299 14.1771109,57.6762885 C7.95057497,49.9211233 5.79728311,41.1247169 7.82196454,31.4020719 C9.25210258,24.516825 12.7764513,18.777503 18.2050802,14.2991087 C25.5269193,8.25307119 33.9577435,5.98981669 43.2990401,7.56777901 C51.5233911,8.9585044 58.1544156,13.1453512 63.0285519,19.9112439 C68.3713576,27.3237629 70.0640649,35.6020974 68.2026963,44.5325287 C66.8315151,51.1257307 63.5132664,56.6510854 58.4865141,61.1401719 C56.3787458,63.0221145 54.0488323,64.5800602 51.5046095,65.8075438 C46.9116996,68.0280297 42.0669173,69.0640492 36.9625509,68.889991 C35.2994464,68.833795 33.6577355,68.6410877 32.0241093,68.3399669 C31.708056,68.2824034 31.6223572,68.1700115 31.630442,67.8487497 C31.6625324,65.230665 31.6518356,62.6125804 31.7107924,59.9918848 C31.7642765,57.6602503 31.7456192,55.3286157 31.7375345,52.9957379 C31.7349224,52.6008744 31.8420149,52.4750551 32.243767,52.4830121 C34.3514109,52.525905 36.4590547,52.5393324 38.5666986,52.5633275 C39.4771709,52.5727764 40.3877676,52.5727764 41.2983643,52.5848361 C44.1212015,52.6196478 46.9116996,52.3840475 49.6112749,51.514005 C54.7504681,49.8582137 58.232154,46.5482475 59.664904,41.2639635 C60.4898019,38.2149603 60.5432859,35.1122478 60.0613077,32.0070487 C59.5819416,28.9204987 58.358028,26.1700054 56.1405553,23.9145835 C53.5560329,21.2844391 50.3316923,19.9527692 46.767044,19.3022886 C44.5095205,18.8886517 42.2303546,18.8726134 39.9485766,18.8445155 C35.9716038,18.7976441 31.9946309,18.7668109 28.0202701,18.7347344 C26.6677461,18.7240423 25.3180828,18.7347344 23.8825964,18.7347344 M38.0016336,76 C58.8051794,76.0481364 76.3012977,59.0870306 75.9960656,37.4171519 C75.7067543,16.6761227 58.7918705,-0.0227767648 37.93198,-4.80870623e-05 C16.9596486,0.0229756885 -0.319548413,17.1807673 0.00446529447,38.6138024 C0.315170186,59.2249096 17.1122647,76.0079786 38.0016336,76" id="Fill-1" fill="#1B83BD" mask="url(#mask-2)"></path>
                </g>
                <path d="M22.8057402,49.7031797 L22.8057402,21.2738711 C25.9710684,24.0105921 29.0881424,26.7097862 32.2130716,29.3995051 C32.4277843,29.5861422 32.4519737,29.7887376 32.4519737,30.035717 C32.4466122,33.7672125 32.4439937,37.4998302 32.4573831,41.2310764 C32.4600785,41.5585953 32.3446174,41.7585725 32.1029722,41.9571783 C31.0156933,42.8484734 29.9363945,43.7532333 28.8544771,44.6551257 C26.8544825,46.322143 24.8568569,47.9919031 22.8057402,49.7031797 M23.8394033,18.6861356 C25.2784269,18.6861356 26.6314158,18.6754137 27.9872725,18.6861356 C31.9714264,18.7183015 35.9581988,18.7492207 39.9449711,18.7962228 C42.2324962,18.8243992 44.5171534,18.8404822 46.7802396,19.2552729 C50.3536714,19.9075677 53.585957,21.2429519 56.1768479,23.8804323 C58.3997845,26.1420204 59.6267139,28.9001853 60.1072613,31.995469 C60.5904271,35.1093291 60.5368112,38.2205711 59.7098808,41.2780786 C58.2736003,46.5772262 54.7833354,49.8964245 49.6314789,51.5567094 C46.9252517,52.4291787 44.1278776,52.6654361 41.2982094,52.6305274 C40.3852443,52.618434 39.4724038,52.618434 38.5596881,52.6089588 C36.4468508,52.5848967 34.3340136,52.5714319 32.2211764,52.5284193 C31.8184343,52.5204402 31.711078,52.6466103 31.7136964,53.0425753 C31.7218011,55.3819599 31.7405043,57.7202225 31.6868885,60.0583605 C31.6277864,62.6863657 31.6385096,65.311628 31.6063401,67.9370151 C31.5982354,68.2591729 31.6841454,68.3718783 32.0009774,68.4296024 C33.6386289,68.7315631 35.2843851,68.9248079 36.9515876,68.9811606 C42.0686562,69.1557043 46.9252517,68.1167951 51.5294788,65.8901158 C54.0799707,64.6593332 56.41575,63.0970421 58.5285872,61.2098504 C63.5677258,56.7082429 66.8941508,51.1674769 68.2688354,44.5558851 C70.1346658,35.6005451 68.4379123,27.2989959 63.0818169,19.8659266 C58.1956704,13.0810378 51.5483066,8.88263772 43.3036903,7.48803332 C33.9393762,5.90566974 25.4877779,8.17523692 18.1478974,14.2380134 C12.705892,18.7290235 9.17285905,24.4843536 7.73919705,31.3888049 C5.70952668,41.1384436 7.86812439,49.9595096 14.1100029,57.7363055 C16.3061317,60.4716551 18.9559999,62.7050668 21.9493834,64.527802 C22.1130987,64.6271673 22.2795571,64.7210468 22.4380355,64.8123083 C22.6071123,64.7210468 22.5426487,64.5761756 22.5426487,64.4633455 C22.5614766,62.0743405 22.5749428,59.6878291 22.593646,57.3014423 C22.6044939,56.0677921 22.6313018,54.8370095 22.6366634,53.6048554 C22.6366634,53.3566293 22.7118502,53.183457 22.8997549,53.027739 C26.2744342,50.222572 29.6438765,47.4146621 33.0104511,44.598773 C33.2225452,44.4216111 33.4372579,44.3571546 33.7084542,44.3625156 C36.5246561,44.418993 39.3436012,44.4807066 42.1599278,44.4297149 C43.5049367,44.4055282 44.8338608,44.2309844 46.1413386,43.8820217 C48.5253721,43.2456851 50.0610288,41.7424896 50.7751167,39.3963725 C51.4677582,37.1064834 51.5026708,34.7899141 50.8905777,32.4840668 C50.1710036,29.7619326 48.3321058,28.2210855 45.6258786,27.6265148 C44.1225161,27.2950064 42.5975825,27.1607324 41.0565642,27.1446494 C38.6563212,27.1178445 36.256203,27.0882967 33.8560847,27.0654814 C33.6413721,27.0613671 33.4614474,27.0238402 33.2896274,26.8708651 C30.2290371,24.2186731 27.1630852,21.5718422 24.0971333,18.9250112 C24.027308,18.8660403 23.9655875,18.8015838 23.8394033,18.6861356" id="Fill-4" fill="#FDFDFE"></path>
                <path d="M23,49 C25.1251477,47.3145653 27.1948737,45.67002 29.2670542,44.0281762 C30.3880212,43.1399033 31.5062753,42.2488061 32.6327974,41.3709704 C32.8831643,41.1753637 33.0027927,40.9784063 33,40.6558332 C32.9861274,36.9809322 32.9888404,33.3046805 32.9943954,29.629534 C32.9943954,29.3862842 32.9693329,29.1867482 32.7468706,29.0029295 C29.5091531,26.3538278 26.2795745,23.695394 23,21 L23,49 Z" id="Fill-6" fill="#FDFDFE"></path>
            </g>
        </g>
    </g>
</svg>